<!-- icon666.com - MILLIONS vector ICONS FREE --><svg viewBox="0 0 64 64" xmlns="http://www.w3.org/2000/svg"><g id="cross-arrow-direction-button-pointer"><path d="m32 62a30 30 0 1 1 30-30 30.034 30.034 0 0 1 -30 30zm0-58a28 28 0 1 0 28 28 28.032 28.032 0 0 0 -28-28z"></path><path d="m30 8.079a1 1 0 0 1 -.078-2c.688-.051 1.388-.079 2.078-.079a1 1 0 0 1 0 2c-.638 0-1.284.025-1.921.076z"></path><path d="m7 33a1 1 0 0 1 -1-1 25.953 25.953 0 0 1 19.76-25.243 1 1 0 1 1 .48 1.943 23.959 23.959 0 0 0 -18.24 23.3 1 1 0 0 1 -1 1z"></path><path d="m41.192 46.192a4.967 4.967 0 0 1 -3.535-1.464l-5.657-5.657-5.657 5.657a5 5 0 0 1 -7.071-7.071l5.657-5.657-5.657-5.657a5 5 0 0 1 7.071-7.071l5.657 5.657 5.657-5.657a5 5 0 0 1 7.071 7.071l-5.657 5.657 5.657 5.657a5 5 0 0 1 -3.536 8.535zm-9.192-9.535a.993.993 0 0 1 .707.293l6.364 6.364a3.072 3.072 0 0 0 4.242 0 3 3 0 0 0 0-4.243l-6.363-6.364a1 1 0 0 1 0-1.414l6.363-6.364a3 3 0 0 0 0-4.243 3.072 3.072 0 0 0 -4.242 0l-6.364 6.364a1 1 0 0 1 -1.414 0l-6.364-6.364a3.072 3.072 0 0 0 -4.242 0 3 3 0 0 0 0 4.243l6.363 6.364a1 1 0 0 1 0 1.414l-6.363 6.364a3 3 0 0 0 0 4.243 3.072 3.072 0 0 0 4.242 0l6.364-6.364a.993.993 0 0 1 .707-.293z"></path></g></svg>